<?xml version="1.0" encoding="utf-8"?>
<!-- Generator: Adobe Illustrator 28.1.0, SVG Export Plug-In . SVG Version: 6.00 Build 0)  -->
<svg version="1.1" id="Layer_1" xmlns="http://www.w3.org/2000/svg" xmlns:xlink="http://www.w3.org/1999/xlink" x="0px" y="0px"
	 viewBox="0 0 1080 1080" style="enable-background:new 0 0 1080 1080;" xml:space="preserve">
<style type="text/css">
	.st0{fill:#261E1D;}
	.st1{fill:#F4AD71;}
</style>
<g>
	<path class="st0" d="M171.07,347.67c-1.78,0.51-3.45,1.11-5.17,1.45c-4.83,0.97-8.33-1.59-9-6.48c-0.08-0.58-0.12-1.18-0.13-1.77
		c-0.69-49.81,15.57-92.62,52.5-126.86c1.01-0.94,2.08-1.81,3.15-2.68c1.06-0.86,2.15-1.68,3.48-2.71
		c-2.35-1.87-4.47-3.58-6.61-5.27c-4.34-3.42-8.54-6.98-11.78-11.53c-0.91-1.29-1.78-2.59-2.29-4.11c-1.34-4.04,0.52-8.1,4.5-9.62
		c2.33-0.89,4.81-1,7.26-1.11c4.45-0.2,8.8-0.96,13.07-2.17c12.12-3.43,21.24-10.85,28.12-21.22c3.76-5.66,7.63-11.23,11.95-16.49
		c20.96-25.56,47.63-41.64,80.06-48.02c12.56-2.47,25.23-2.72,37.92-0.99c5.15,0.7,10.28,1.59,15.46,2.4
		c-0.21-1.2-1.08-1.93-1.69-2.81c-4.93-7.06-8.33-14.69-8.96-23.41c-0.3-4.17,0.15-8.25,1.08-12.3c0.18-0.76,0.48-1.5,0.78-2.22
		c2.2-5.21,6.11-6.76,11.23-4.36c1.41,0.66,2.74,1.54,4.02,2.45c15.09,10.67,31.89,16.87,50.16,19.25
		c3.71,0.48,7.43,0.89,11.17,1.07c0.98,0.05,1.98,0.08,2.95-0.03c1.77-0.2,1.99-0.7,1.01-2.23c-1.97-3.06-3.84-6.18-5.52-9.42
		c-3.67-7.07-5.89-14.57-6.72-22.48c-0.2-1.96-0.3-3.94,0.11-5.89c1.17-5.57,5.46-8.02,10.86-6.16c4.03,1.39,7.64,3.59,11.16,5.96
		c7.33,4.94,15.3,8.47,23.9,10.52c8.77,2.09,17.68,2.77,26.68,2.31c15.05-0.78,30.03-2.4,45.03-3.71
		c21.13-1.84,42.29-2.27,63.45-0.63c19.03,1.48,37.59,5.17,55.21,12.82c3.15,1.37,6.34,2.72,9.32,4.42
		c11.85,6.76,24.52,11.55,37.44,15.73c12.53,4.06,25.08,8.06,37.05,13.64c17.65,8.22,33.68,18.77,47.15,32.95
		c15.92,16.77,26.52,36.51,32.56,58.76c0.33,1.23,0.71,2.45,1.08,3.68c0.08,0.28,0.22,0.54,0.34,0.82c0.93-0.62,1.03-1.68,1.37-2.57
		c1.86-4.87,3.64-9.77,5.49-14.64c1.16-3.06,2.92-5.56,6.32-6.48c3.63-0.98,6.59,0.07,8.99,2.87c0.97,1.13,1.63,2.46,2.15,3.85
		c3.57,9.51,6.52,19.16,7.59,29.33c1.11,10.48-0.11,20.61-3.93,30.43c-0.21,0.55-0.47,1.08-0.67,1.64
		c-0.78,2.15-0.63,2.55,1.33,3.88c0.16,0.11,0.34,0.2,0.51,0.3c19.52,11.87,33.05,28.81,42.17,49.56
		c10.05,22.86,13.54,46.69,11.42,71.51c-1.28,15.03-4,29.83-6.46,44.68c-3.42,20.67-7.01,41.32-9.27,62.17
		c-0.93,8.51-1.33,17.08-2.82,25.53c-0.55,3.1-1.19,6.18-1.77,9.27c-0.66,3.48-0.5,3.78,2.8,4.99c9.54,3.49,17.31,9.22,22.78,17.9
		c3.78,5.99,6.12,12.53,7.51,19.43c2.58,12.83,2.95,25.8,2.37,38.82c-0.69,15.49-3.29,30.7-7.06,45.72
		c-4.98,19.86-10.89,39.42-18.96,58.28c-4.19,9.79-9.22,19.14-15.34,27.88c-3.23,4.61-6.76,8.96-11.07,12.63
		c-6.16,5.26-13.17,8.5-21.31,9.19c-3.65,0.31-4.7,1.34-5.24,5.15c-1.78,12.67-4.05,25.25-6.7,37.76
		c-8.2,38.66-20.25,75.98-38.48,111.16c-7.91,15.26-17.17,29.66-28.76,42.41c-4.76,5.24-9.91,10.13-14.66,15.38
		c-8,8.83-15.76,17.88-23.16,27.22c-0.73,0.92-1.5,1.83-2.34,2.66c-25.73,25.13-54.14,46.55-86.42,62.64
		c-26.32,13.12-53.99,21.99-83.06,26.59c-21.1,3.34-42.31,4.33-63.59,3.18c-45.87-2.49-88.38-15.98-127.71-39.63
		c-16.24-9.76-31.65-20.7-45.8-33.29c-9.77-8.69-19.09-17.91-28.25-27.27c-10.74-10.99-21.06-22.38-31.78-33.38
		c-22.29-22.85-38.14-49.71-49.87-79.13c-11.43-28.67-19.73-58.28-25.06-88.69c-1.56-8.91-3.04-17.84-4.55-26.77
		c-0.05-0.29-0.1-0.59-0.1-0.88c-0.07-5.23-1.53-4.77-5.04-5.05c-7.44-0.59-13.82-3.59-19.47-8.33c-4.64-3.89-8.4-8.57-11.91-13.46
		c-8.62-12.02-14.75-25.31-19.61-39.19c-6.63-18.95-12.44-38.13-16.33-57.86c-3.93-19.89-5.69-39.94-4.39-60.21
		c0.48-7.49,1.75-14.85,4.62-21.86c6.18-15.12,17.72-23.87,33.25-27.84c1.14-0.29,2.33-0.46,3.42-0.87
		c1.77-0.67,2.39-1.83,2.13-3.72c-0.11-0.78-0.28-1.56-0.55-2.29c-3.45-9.38-5.02-19.21-6.76-28.98
		c-3.61-20.21-5.29-40.6-5.22-61.12c0.06-16.16,0.98-32.27,3.7-48.24C171.1,350.25,171.38,348.99,171.07,347.67z M232.85,534.27
		c-0.54,1.09-0.39,1.89-0.39,2.67c-0.11,17.03,0.08,34.07-0.32,51.1c-0.28,12-0.21,24.02,0.23,36.03
		c0.51,13.97,1.37,27.89,3.03,41.77c1.35,11.33,3.28,22.56,5.75,33.7c3.03,13.65,7.39,26.92,11.57,40.24
		c5.45,17.37,11.26,34.62,19.11,51.08c21.17,44.37,52.07,80.48,92.67,108.17c34.36,23.44,71.99,39.48,112.56,48.62
		c13.36,3.01,26.86,4.94,40.53,5.91c5.41,0.38,10.82,0.4,16.22,0.68c9.75,0.52,19.5-0.08,29.23-0.51c9.33-0.42,18.64-1.3,27.95-2.06
		c7.75-0.63,15.46-1.51,23.03-3.36c33.02-8.05,64.12-20.9,93.42-38.02c44.99-26.3,79.75-62.45,103.64-108.88
		c19.86-38.62,30.39-79.99,36.05-122.78c1.01-7.6,1.83-15.22,2.57-22.85c0.94-9.69,1.77-19.39,2.05-29.12
		c0.41-14.37,0.25-28.75-0.43-43.11c-0.29-6.19-0.49-12.39-0.85-18.58c-0.42-7.07-0.93-14.14-1.1-21.22
		c-0.03-1.28,0.1-2.57-0.02-3.84c-0.17-1.69-0.89-2.24-2.6-1.99c-2.14,0.31-4.27,0.68-6.37,1.18c-3.03,0.71-4.08,2.16-3.96,5.27
		c0.03,0.88,0.17,1.76,0.35,2.63c1,4.72,1.64,9.51,1.93,14.31c0.74,12.13-0.09,24.17-2.69,36.08c-8.84,40.46-38.11,74.7-76.65,89.71
		c-19.93,7.76-40.51,10.16-61.72,8.2c-13.85-1.29-27.07-4.86-39.65-10.79c-16.84-7.93-30.99-19.37-43.16-33.35
		c-18.15-20.85-27.67-45.31-29.94-72.67c-0.81-9.84,0.03-19.66,2.21-29.33c0.87-3.87,0.15-5.39-3.43-7.03
		c-16.42-7.51-33.51-11.25-51.64-8.94c-8.55,1.09-16.75,3.44-24.58,7.04c-3.44,1.58-4.06,2.76-3.74,6.47
		c0.05,0.59,0.15,1.17,0.26,1.75c2.74,14.07,2.82,28.17,0.23,42.24c-5.27,28.64-18.47,53-40.21,72.46
		c-23.9,21.4-52.13,32.22-84.14,33.03c-9.06,0.23-18.06-0.78-26.96-2.65c-31.12-6.54-56.48-22.34-75.92-47.48
		c-13.47-17.41-21.7-37.12-24.78-58.91c-1.38-9.77-1.51-19.59-0.37-29.43c0.45-3.9,1.24-7.77,1.35-11.71
		c0.08-2.92-1.15-4.94-3.79-6.06C244.08,537.65,238.5,536.09,232.85,534.27z M626.16,476.49c-1.45-0.48-2.45-0.81-3.45-1.14
		c-4.22-1.39-7.34-4.08-9.5-7.95c-1.37-2.46-2.15-5.14-2.29-7.88c-0.49-10.13,3.06-14.7,11.34-17.15c0.38-0.11,0.77-0.18,1.15-0.28
		c22.43-5.92,44.78-12.19,67.81-15.54c10.23-1.49,20.44-2.91,30.82-2.8c13.16,0.14,25.47,3.32,37.05,9.52
		c15.82,8.47,27.42,21.61,38.82,34.97c1.88,2.21,2.06,4.9,0.87,7.51c-0.7,1.54-0.43,2.48,0.8,3.56
		c12.27,10.73,21.58,23.66,28.43,38.41c0.45,0.98,0.87,2,1.45,2.9c0.97,1.49,1.95,1.9,3.51,1.13c1.88-0.93,3.87-1.39,5.86-1.94
		c2.96-0.82,3.82-2.22,3.28-5.23c-0.87-4.84-1.68-9.69-2.67-14.5c-4.43-21.46-11.71-41.84-23.37-60.51
		c-3.61-5.77-6.77-11.76-9.24-18.12c-6.11-15.72-8.01-32.2-8.6-48.87c-0.5-14.16-0.59-28.32-2.37-42.41
		c-2.11-16.68-6.48-32.74-12.01-48.57c-8.3-23.74-24.19-40.11-47.17-49.92c-18.71-8-38.15-9.55-58.16-7.23
		c-17.8,2.06-34.14,8.19-49.72,16.77c-10.6,5.84-21.17,11.75-31.95,17.26c-18.42,9.42-37.24,17.88-57.05,24.01
		c-17.47,5.41-35.31,8.73-53.58,9.5c-17.47,0.73-34.8-0.7-51.97-3.98c-4.34-0.83-8.69-1.68-12.96-2.86
		c-2.3-0.64-4.19-1.79-4.91-4.22c-1.02-3.44,0.1-6.49,3.19-8.44c1.4-0.89,2.98-1.51,4.47-2.25c1.91-0.95,3.76-1.97,5.22-3.95
		c-1.22-0.45-2.19-0.28-3.13-0.29c-7.68-0.08-15.36,0.01-23.04-0.31c-11.57-0.47-22.86-2.43-33.93-5.75
		c-10.41-3.12-20.32-7.43-29.77-12.78c-6.44-3.64-12.55-3.28-18.53,1.01c-2.89,2.07-5.64,4.29-8.21,6.74
		c-8.69,8.32-14.74,18.38-19.34,29.39c-7.73,18.51-12.03,37.82-13.37,57.79c-0.74,10.99-1.29,22-1.76,33.01
		c-0.39,8.95-1.02,17.87-2.51,26.71c-2.38,14.14-7.01,27.41-15.14,39.35c-3.44,5.05-6.39,10.4-9.07,15.89
		c-6.52,13.33-10.98,27.36-14.17,41.81c-0.85,3.83-1.83,7.63-1.94,11.61c-0.09,3.56,1.48,5.84,4.59,7.15
		c5.01,2.12,10.29,3.3,15.6,4.34c2.72,0.53,4.81-0.64,6.11-3.09c0.6-1.13,1.12-2.3,1.63-3.47c2.27-5.15,4.92-10.08,8.02-14.77
		c5.57-8.42,12.02-16.08,19.81-22.55c0.85-0.71,1.31-1.42,0.95-2.53c-1.06-3.23,0.4-5.72,2.35-8.09
		c8.32-10.06,17.66-19.05,27.86-27.19c14.14-11.28,30.18-17.13,48.31-16.85c7.28,0.11,14.53,0.94,21.75,1.85
		c12.2,1.54,24.29,3.72,36.3,6.37c15.37,3.38,30.57,7.42,45.74,11.58c3.92,1.07,6.24,3.48,7.21,7.37c0.72,2.88,1.06,5.79,1.06,8.76
		c0.01,4.9-2.02,8.74-5.83,11.7c-2.83,2.19-6.05,3.65-9.35,4.98c-0.87,0.35-1.97,0.33-2.75,1.66c0.41,0.29,0.94,0.58,1.38,0.97
		c13.77,12.42,24.08,27.22,30.73,44.55c0.21,0.55,0.44,1.1,0.73,1.61c1.01,1.74,1.95,2.11,3.94,1.5c0.94-0.29,1.85-0.66,2.77-1.02
		c14.46-5.73,29.36-8.65,45-7.59c12.9,0.87,25.24,3.82,37.1,8.89c5.06,2.16,5.33,2.06,7.19-3.02c3.5-9.59,8.28-18.48,14.26-26.75
		C613.08,489.54,619.14,482.96,626.16,476.49z M379.15,682.19c7.12,0.01,14.18-0.63,21.13-2c26.34-5.19,48.34-17.92,65.6-38.52
		c16.08-19.19,24.51-41.48,25.94-66.42c0.48-8.36-0.12-16.7-1.53-24.98c-3.49-20.38-11.82-38.51-25.58-53.94
		c-22.64-25.38-51.53-37.27-85.11-38.65c-7.49-0.31-14.94,0.31-22.32,1.6c-27.49,4.81-50.32,17.86-67.77,39.6
		c-20.97,26.12-28.52,56.06-23.33,89.11c3.66,23.37,13.93,43.57,30.61,60.3C319.44,671.05,347.27,681.65,379.15,682.19z
		 M825.34,570.79c0.04-7.79-0.81-15.49-2.34-23.14c-9.93-49.65-52.5-88.19-108.46-89.97c-8.98-0.29-17.88,0.5-26.69,2.29
		c-22.75,4.63-42.41,15.07-58.25,32.07c-23.55,25.28-33.09,55.45-30.19,89.71c0.98,11.57,4.05,22.61,8.73,33.21
		c18.51,41.92,62.34,69.8,109.71,66.74c11.97-0.77,23.57-3.04,34.79-7.23C796.1,658.26,825.55,617.56,825.34,570.79z M207.91,556.79
		c0.63-2.02,0.76-3.43,0.37-4.69c-1.56-5.13-1.41-10.51-2.37-15.72c-1.13-6.11-2.69-12.08-5.24-17.78c-1.43-3.19-3.69-5.2-7.06-6.18
		c-2.57-0.75-5.15-1.36-7.8-1.53c-13.26-0.85-25.39,6.68-30.61,18.91c-2.3,5.39-3.74,11.02-4.08,16.84
		c-0.83,14.38-0.22,28.72,1.85,42.99c2.05,14.13,5.35,27.99,9.21,41.73c4.58,16.32,10.1,32.29,17.71,47.47
		c3.66,7.31,7.55,14.5,12.45,21.07c3.5,4.69,7.85,8.26,13.69,9.72c1.07,0.27,2.12,0.4,3.21,0.38c0.95-0.02,1.4-0.53,1.61-1.41
		c0.16-0.69,0.08-1.35,0.02-2.04c-0.64-7.05-1.55-14.09-1.81-21.16c-0.53-14.46-1.07-28.93-0.82-43.41
		c0.2-11.5,0.19-23.03,2.93-34.33c0.7-2.88,0.8-5.85-0.13-8.75c-3.73-11.69-8.59-22.84-15.95-32.76c-0.68-0.92-1.2-2.05-2.45-2.54
		c-3.63,3.3-6.25,7.32-8.41,11.66c-1.98,3.97-3.49,8.13-4.99,12.3c-0.5,1.38-0.95,2.81-1.87,3.99c-0.95,1.22-2.21,1.57-3.69,1.11
		c-1.38-0.43-2.13-1.38-2.17-2.82c-0.02-0.88-0.02-1.78,0.1-2.65c0.52-3.8,1.33-7.54,2.26-11.27c2.21-8.9,6.07-16.83,13.24-22.84
		c0.23-0.19,0.43-0.4,0.62-0.63c1.35-1.56,1.44-2.51,0.17-4.2c-1.49-1.99-3.33-3.65-5.47-4.9c-2.54-1.49-5.19-2.82-7.76-4.26
		c-1.11-0.62-2.28-1.22-3.22-2.06c-1.79-1.59-1.33-4.4,0.85-5.37c1.26-0.56,2.63-0.79,4.04-0.6c2.45,0.32,4.83,0.87,7.08,1.94
		c5.3,2.53,10.05,5.79,13.95,10.23c2.41,2.74,4.58,5.67,6.76,8.58C205.25,553.3,206.38,554.77,207.91,556.79z M885.04,553.68
		c0.44-0.63,0.9-1.24,1.31-1.89c3.17-4.9,6.73-9.47,11.02-13.44c3.14-2.9,6.53-5.39,10.75-6.51c3.08-0.82,6.17-1.23,9.32-0.39
		c1.86,0.5,3.15,1.59,3.58,3.52c0.43,1.94-0.63,3.19-2.12,4.17c-0.74,0.49-1.53,0.9-2.29,1.35c-3.9,2.3-7.83,4.55-11.34,7.45
		c-3.99,3.29-4.05,4.01-0.5,7.63c4.17,4.26,7.61,9.02,10.07,14.47c2.76,6.11,3.93,12.55,3.84,19.22c-0.03,2.16-0.98,3.32-2.71,3.7
		c-2.03,0.46-3.36-0.16-4.36-2.1c-0.36-0.69-0.6-1.45-0.87-2.19c-2.63-7.23-6.74-13.54-11.92-19.18c-0.6-0.65-1.23-1.29-1.95-1.8
		c-1.49-1.05-2.41-0.91-3.56,0.49c-0.43,0.53-0.79,1.13-1.09,1.75c-2.56,5.21-5.18,10.39-7.61,15.66
		c-5.17,11.21-7.59,22.89-6.07,35.28c1.18,9.68,1.43,19.42,1.57,29.16c0.14,9.55-0.38,19.09-1.09,28.61
		c-0.5,6.76-1.19,13.51-2.18,20.22c-0.39,2.62-0.74,5.26-0.89,7.91c-0.13,2.38,0.86,3.25,3.23,3.05c1.16-0.1,2.32-0.4,3.45-0.74
		c6.02-1.83,10.41-5.81,14.04-10.76c5.44-7.4,9.99-15.34,13.72-23.73c6.44-14.5,11.33-29.56,15.92-44.71
		c3.88-12.81,6.89-25.82,8.4-39.16c0.72-6.35,1.19-12.72,1.81-19.08c0.92-9.42,1.46-18.83,0.42-28.27
		c-0.68-6.19-1.9-12.24-4.72-17.87c-2.36-4.7-5.64-8.58-10.37-10.97c-7.38-3.74-15.24-4.45-23.28-2.95
		c-3.43,0.64-5.74,2.73-6.63,6.33c-0.92,3.72-2.18,7.35-3.2,11.05C886.51,537.01,884.92,545.18,885.04,553.68z"/>
	<path class="st1" d="M232.85,534.27c5.66,1.82,11.23,3.38,16.57,5.65c2.63,1.12,3.87,3.14,3.79,6.06
		c-0.11,3.95-0.9,7.81-1.35,11.71c-1.14,9.84-1.01,19.67,0.37,29.43c3.08,21.79,11.31,41.5,24.78,58.91
		c19.44,25.14,44.8,40.94,75.92,47.48c8.9,1.87,17.9,2.88,26.96,2.65c32.02-0.81,60.24-11.63,84.14-33.03
		c21.74-19.46,34.94-43.82,40.21-72.46c2.59-14.07,2.51-28.17-0.23-42.24c-0.11-0.58-0.21-1.16-0.26-1.75
		c-0.32-3.71,0.3-4.89,3.74-6.47c7.83-3.59,16.02-5.94,24.58-7.04c18.13-2.32,35.21,1.43,51.64,8.94c3.58,1.64,4.3,3.16,3.43,7.03
		c-2.18,9.67-3.03,19.49-2.21,29.33c2.27,27.35,11.79,51.82,29.94,72.67c12.17,13.98,26.32,25.42,43.16,33.35
		c12.57,5.93,25.79,9.5,39.65,10.79c21.21,1.97,41.79-0.43,61.72-8.2c38.54-15.01,67.81-49.24,76.65-89.71
		c2.6-11.91,3.43-23.95,2.69-36.08c-0.29-4.8-0.93-9.59-1.93-14.31c-0.18-0.86-0.32-1.75-0.35-2.63c-0.12-3.11,0.93-4.56,3.96-5.27
		c2.1-0.49,4.23-0.86,6.37-1.18c1.71-0.25,2.43,0.3,2.6,1.99c0.13,1.27-0.01,2.56,0.02,3.84c0.16,7.08,0.68,14.15,1.1,21.22
		c0.36,6.19,0.56,12.39,0.85,18.58c0.68,14.37,0.84,28.74,0.43,43.11c-0.28,9.73-1.11,19.43-2.05,29.12
		c-0.74,7.63-1.57,15.25-2.57,22.85c-5.66,42.79-16.19,84.17-36.05,122.78c-23.88,46.43-58.64,82.58-103.64,108.88
		c-29.3,17.12-60.4,29.98-93.42,38.02c-7.57,1.84-15.29,2.73-23.03,3.36c-9.31,0.75-18.62,1.64-27.95,2.06
		c-9.73,0.44-19.48,1.03-29.23,0.51c-5.4-0.29-10.81-0.3-16.22-0.68c-13.67-0.96-27.17-2.9-40.53-5.91
		c-40.57-9.14-78.2-25.19-112.56-48.62c-40.59-27.69-71.5-63.81-92.67-108.17c-7.85-16.46-13.66-33.71-19.11-51.08
		c-4.18-13.32-8.54-26.59-11.57-40.24c-2.47-11.14-4.4-22.37-5.75-33.7c-1.66-13.88-2.53-27.8-3.03-41.77
		c-0.43-12.02-0.51-24.03-0.23-36.03c0.4-17.04,0.21-34.07,0.32-51.1C232.46,536.16,232.31,535.36,232.85,534.27z M588.55,735.32
		c1.02-3.14,2.73-4.95,5.75-5.28c3.62-0.39,7.24-0.8,10.85-1.2c6.82-0.74,13.38-2.31,19.19-6.18c5.47-3.64,9.23-8.54,10.53-15.08
		c0.9-4.5,0.72-9.01-0.18-13.5c-1.72-8.5-5.95-15.77-11.13-22.57c-0.3-0.39-0.65-0.75-1.01-1.07c-0.99-0.86-2.12-1.04-3.29-0.48
		c-1.08,0.52-1.58,1.47-1.5,2.65c0.06,0.88,0.17,1.77,0.4,2.61c0.77,2.95,1.61,5.88,2.42,8.82c1.13,4.11,1.76,8.28,1.45,12.55
		c-0.58,7.89-4.36,13.53-11.8,16.53c-3.42,1.38-7.03,2.16-10.67,1.99c-7.52-0.37-14.19,1.65-20.18,6.12
		c-0.47,0.35-0.99,0.64-1.5,0.94c-14.29,8.41-29.49,11.13-45.72,7.21c-7.32-1.77-14.19-4.67-20.76-8.3
		c-4.5-2.48-9.14-4.58-14.24-5.51c-3.23-0.59-6.48-0.33-9.72-0.38c-8.52-0.14-13.81-3.89-16.89-11.83
		c-2.19-5.64-2.75-11.42-1.83-17.4c0.55-3.61,1.45-7.13,2.19-10.69c0.33-1.59,0.13-2.95-1.31-3.89c-1.2-0.79-2.25-0.56-3.96,0.91
		c-3.33,2.88-5.86,6.36-7.54,10.44c-2.34,5.67-2.95,11.53-2.26,17.65c1.56,13.78,10.54,24.19,23.95,27.47
		c2.01,0.49,4.03,0.87,6.1,1.07c3.52,0.33,7.06,0.58,10.56,1.09c3.43,0.5,6.13,2.36,8.27,5.14c-0.71,0.54-1.4,0.64-2.08,0.75
		c-8.35,1.36-16.71,2.65-25.1,3.75c-15.62,2.05-31.31,3.39-47.02,4.47c-11,0.76-22.03,1.11-33.02,1.91
		c-14.92,1.08-25.79,8.19-31.95,22.07c-6.63,14.92-6.14,30.01-1.27,45.23c0.24,0.74,0.59,1.47,1.03,2.11
		c0.83,1.19,1.85,1.39,3.05,0.62c0.57-0.36,1.12-0.84,1.51-1.39c3.81-5.33,9.04-9.32,13.28-14.25c0.82-0.96,1.85-1.78,2.91-2.48
		c2.33-1.54,4.32-1.44,6.54,0.26c0.7,0.53,1.37,1.15,1.92,1.83c1.45,1.83,3.34,2.99,5.4,3.99c18.2,8.85,37.45,14.27,57.34,17.62
		c11.36,1.91,22.79,3.21,34.25,4.31c11.56,1.12,23.13,2.21,34.73,2.59c21.36,0.7,42.71,0.4,64.04-1.44
		c13.73-1.19,27.42-2.6,41.01-4.91c17.52-2.98,34.58-7.53,50.86-14.79c5.82-2.59,11.32-5.52,14.79-11.24
		c1.02-1.69,2.13-1.7,3.7-0.48c0.54,0.42,1.03,0.92,1.5,1.42c5.88,6.09,12.19,11.76,17.71,18.2c1.77,2.07,3.86,2.12,5.93,0.32
		c1.58-1.37,2.19-3.23,2.58-5.18c1.91-9.62,2.63-19.3,1.2-29.06c-1.45-9.86-5.3-18.69-11.5-26.49c-2.61-3.29-5.92-5.32-10.12-6.1
		c-6.2-1.16-12.44-1.92-18.74-2.25c-5.51-0.28-11.02-0.45-16.52-0.81c-11-0.72-21.96-1.92-32.9-3.21
		c-13.29-1.57-26.62-2.75-39.84-4.87C596.18,737.06,592.39,736.51,588.55,735.32z M543.97,898.53c7.91,0.39,15.97-0.77,23.86-3.05
		c16.77-4.86,28.83-15.29,36.21-31.07c2.22-4.75,1.14-6.34-4.03-6.34c-5.73,0-11.37,0.92-17.02,1.71c-7.11,1-14.18,2.24-21.36,2.69
		c-10.82,0.68-21.64,0.54-32.46-0.01c-10.53-0.53-20.98-1.67-31.38-3.33c-3.59-0.57-7.11-1.61-10.78-1.65
		c-3.62-0.04-5.24,1.65-5.14,5.27c0.08,2.67,1.2,4.98,2.72,7.06c7.3,9.94,16.3,17.84,27.68,22.84
		C522.28,897.04,532.77,898.77,543.97,898.53z"/>
	<path class="st1" d="M626.16,476.49c-7.02,6.48-13.08,13.05-18.35,20.34c-5.98,8.27-10.76,17.16-14.26,26.75
		c-1.85,5.08-2.13,5.18-7.19,3.02c-11.86-5.07-24.2-8.02-37.1-8.89c-15.64-1.06-30.54,1.86-45,7.59c-0.91,0.36-1.83,0.73-2.77,1.02
		c-1.98,0.61-2.92,0.24-3.94-1.5c-0.29-0.51-0.52-1.06-0.73-1.61c-6.65-17.33-16.96-32.13-30.73-44.55
		c-0.44-0.39-0.96-0.68-1.38-0.97c0.78-1.33,1.88-1.31,2.75-1.66c3.3-1.32,6.52-2.78,9.35-4.98c3.81-2.96,5.84-6.79,5.83-11.7
		c0-2.97-0.34-5.88-1.06-8.76c-0.97-3.89-3.29-6.29-7.21-7.37c-15.17-4.15-30.37-8.19-45.74-11.58c-12.01-2.64-24.1-4.83-36.3-6.37
		c-7.22-0.91-14.47-1.74-21.75-1.85c-18.13-0.28-34.17,5.57-48.31,16.85c-10.2,8.14-19.54,17.13-27.86,27.19
		c-1.95,2.36-3.41,4.86-2.35,8.09c0.36,1.11-0.09,1.83-0.95,2.53c-7.79,6.47-14.24,14.13-19.81,22.55
		c-3.1,4.69-5.75,9.63-8.02,14.77c-0.52,1.17-1.03,2.34-1.63,3.47c-1.3,2.46-3.4,3.63-6.11,3.09c-5.31-1.04-10.59-2.23-15.6-4.34
		c-3.11-1.31-4.68-3.6-4.59-7.15c0.1-3.99,1.09-7.78,1.94-11.61c3.19-14.46,7.66-28.48,14.17-41.81c2.68-5.49,5.64-10.84,9.07-15.89
		c8.13-11.94,12.76-25.21,15.14-39.35c1.49-8.84,2.12-17.76,2.51-26.71c0.48-11.01,1.03-22.02,1.76-33.01
		c1.34-19.97,5.64-39.28,13.37-57.79c4.6-11.01,10.64-21.07,19.34-29.39c2.57-2.45,5.32-4.67,8.21-6.74
		c5.98-4.29,12.09-4.65,18.53-1.01c9.45,5.35,19.36,9.66,29.77,12.78c11.07,3.32,22.36,5.28,33.93,5.75
		c7.68,0.31,15.36,0.23,23.04,0.31c0.94,0.01,1.91-0.16,3.13,0.29c-1.46,1.97-3.31,3-5.22,3.95c-1.5,0.74-3.07,1.36-4.47,2.25
		c-3.09,1.95-4.21,5-3.19,8.44c0.72,2.43,2.61,3.58,4.91,4.22c4.27,1.18,8.61,2.03,12.96,2.86c17.17,3.28,34.5,4.71,51.97,3.98
		c18.27-0.77,36.12-4.1,53.58-9.5c19.81-6.13,38.63-14.59,57.05-24.01c10.78-5.51,21.35-11.42,31.95-17.26
		c15.57-8.58,31.92-14.7,49.72-16.77c20.01-2.32,39.44-0.77,58.16,7.23c22.98,9.82,38.87,26.19,47.17,49.92
		c5.53,15.83,9.9,31.9,12.01,48.57c1.78,14.1,1.87,28.25,2.37,42.41c0.59,16.66,2.49,33.14,8.6,48.87
		c2.47,6.36,5.63,12.34,9.24,18.12c11.66,18.67,18.94,39.05,23.37,60.51c0.99,4.81,1.8,9.66,2.67,14.5
		c0.54,3.01-0.32,4.41-3.28,5.23c-1.99,0.55-3.98,1.01-5.86,1.94c-1.56,0.77-2.54,0.36-3.51-1.13c-0.58-0.9-0.99-1.92-1.45-2.9
		c-6.85-14.75-16.16-27.68-28.43-38.41c-1.23-1.07-1.5-2.02-0.8-3.56c1.19-2.6,1.01-5.3-0.87-7.51c-11.4-13.35-23-26.5-38.82-34.97
		c-11.59-6.2-23.89-9.39-37.05-9.52c-10.38-0.11-20.59,1.32-30.82,2.8c-23.02,3.35-45.38,9.61-67.81,15.54
		c-0.38,0.1-0.77,0.17-1.15,0.28c-8.28,2.45-11.84,7.02-11.34,17.15c0.13,2.74,0.92,5.42,2.29,7.88c2.16,3.87,5.28,6.56,9.5,7.95
		C623.71,475.68,624.71,476.01,626.16,476.49z"/>
	<path class="st1" d="M379.15,682.19c-31.88-0.55-59.7-11.14-82.38-33.89c-16.67-16.73-26.94-36.93-30.61-60.3
		c-5.18-33.06,2.36-62.99,23.33-89.11c17.45-21.73,40.28-34.78,67.77-39.6c7.39-1.29,14.84-1.91,22.32-1.6
		c33.58,1.38,62.48,13.27,85.11,38.65c13.76,15.43,22.09,33.56,25.58,53.94c1.42,8.28,2.01,16.62,1.53,24.98
		c-1.42,24.93-9.86,47.23-25.94,66.42c-17.26,20.6-39.26,33.34-65.6,38.52C393.33,681.57,386.27,682.2,379.15,682.19z M414.7,519.54
		c0.23-0.05,0.43-0.16,0.58-0.12c1.5,0.47,3.01,0.93,4.49,1.45c16.99,5.91,32.25,14.56,44.41,28.11c0.33,0.36,0.69,0.71,1.07,1.01
		c0.87,0.68,1.83,0.68,2.77,0.17c0.93-0.51,1.46-1.3,1.42-2.4c-0.04-1.11-0.52-2.09-0.87-3.11c-3.46-10.05-9.46-18.15-17.89-24.73
		c-15.45-12.08-32.66-19.66-52.23-21.37c-18.85-1.64-37.07,1.44-54.66,8.33c-19.6,7.67-33.79,21.23-43.19,39.94
		c-1.03,2.04,0.03,4.04,2.25,4.3c1.24,0.14,2.05-0.51,2.76-1.38c3.41-4.14,7.59-7.44,11.82-10.64c9.98-7.55,21.02-13.08,32.88-17.01
		c1.9-0.63,3.84-0.9,5.82-0.65c2.72,0.34,3.59,1.57,2.96,4.23c-0.32,1.33-0.83,2.62-1.27,3.92c-1.75,5.18-2.74,10.39-1.94,15.93
		c2.56,17.69,17.17,29.98,34.91,28.57c13.56-1.08,23.37-8.14,28.13-20.98c3.93-10.6,2.68-21.1-2.9-31.01
		C415.57,521.25,414.84,520.54,414.7,519.54z"/>
	<path class="st1" d="M825.34,570.79c0.2,46.76-29.24,87.46-72.68,103.69c-11.22,4.19-22.82,6.46-34.79,7.23
		c-47.37,3.06-91.19-24.82-109.71-66.74c-4.68-10.6-7.75-21.64-8.73-33.21c-2.91-34.26,6.63-64.44,30.19-89.71
		c15.84-17,35.5-27.43,58.25-32.07c8.8-1.79,17.71-2.57,26.69-2.29c55.95,1.78,98.53,40.32,108.46,89.97
		C824.54,555.3,825.38,563,825.34,570.79z M730.21,519.32c1.3-0.33,2.25-0.08,3.21,0.14c15.23,3.44,28.88,10.2,41.25,19.63
		c4.31,3.29,8.4,6.83,12.13,10.78c1.38,1.46,2.57,1.54,3.92,0.58c1.39-0.98,1.62-1.98,0.74-3.86c-1.29-2.76-2.53-5.56-4-8.22
		c-4.56-8.28-11.16-14.67-18.82-20.07c-18.62-13.13-39.13-20.49-62.07-20.31c-11.9,0.09-23.47,2.28-34.77,5.99
		c-9.2,3.02-17.96,6.95-25.99,12.45c-11.15,7.64-18.25,18.28-23.19,30.59c-0.48,1.2-0.45,2.32,0.76,3.14
		c1.12,0.76,2.22,0.72,3.24-0.17c0.44-0.38,0.82-0.85,1.23-1.27c1.23-1.27,2.43-2.58,3.71-3.8c12.8-12.07,28.01-19.85,44.69-25.01
		c0.54-0.17,1.1-0.49,1.88,0.01c-0.87,1.79-1.8,3.59-2.62,5.43c-3.54,7.93-5.13,16.12-2.96,24.71
		c6.06,23.94,36.44,32.45,54.55,15.36c8.91-8.41,13.83-24.12,7.57-37.8C733.42,524.85,731.9,522.22,730.21,519.32z"/>
	<path class="st1" d="M207.91,556.79c-1.53-2.02-2.66-3.49-3.77-4.97c-2.19-2.92-4.35-5.84-6.76-8.58
		c-3.91-4.44-8.65-7.7-13.95-10.23c-2.25-1.07-4.63-1.62-7.08-1.94c-1.41-0.19-2.79,0.05-4.04,0.6c-2.19,0.97-2.64,3.78-0.85,5.37
		c0.94,0.84,2.11,1.44,3.22,2.06c2.58,1.44,5.22,2.76,7.76,4.26c2.14,1.25,3.98,2.91,5.47,4.9c1.27,1.69,1.18,2.64-0.17,4.2
		c-0.19,0.22-0.4,0.44-0.62,0.63c-7.17,6.01-11.03,13.94-13.24,22.84c-0.93,3.72-1.74,7.47-2.26,11.27
		c-0.12,0.87-0.12,1.77-0.1,2.65c0.04,1.45,0.79,2.39,2.17,2.82c1.48,0.46,2.73,0.11,3.69-1.11c0.92-1.18,1.37-2.61,1.87-3.99
		c1.5-4.17,3.02-8.33,4.99-12.3c2.16-4.34,4.79-8.36,8.41-11.66c1.26,0.49,1.77,1.62,2.45,2.54c7.36,9.92,12.22,21.07,15.95,32.76
		c0.93,2.9,0.82,5.87,0.13,8.75c-2.74,11.3-2.72,22.82-2.93,34.33c-0.26,14.48,0.29,28.95,0.82,43.41
		c0.26,7.07,1.16,14.11,1.81,21.16c0.06,0.69,0.15,1.35-0.02,2.04c-0.2,0.88-0.66,1.39-1.61,1.41c-1.09,0.02-2.14-0.11-3.21-0.38
		c-5.84-1.46-10.19-5.03-13.69-9.72c-4.91-6.57-8.79-13.76-12.45-21.07c-7.61-15.18-13.13-31.15-17.71-47.47
		c-3.86-13.74-7.17-27.59-9.21-41.73c-2.06-14.26-2.68-28.61-1.85-42.99c0.34-5.82,1.78-11.45,4.08-16.84
		c5.22-12.24,17.35-19.77,30.61-18.91c2.65,0.17,5.23,0.78,7.8,1.53c3.37,0.98,5.63,2.99,7.06,6.18c2.55,5.7,4.11,11.67,5.24,17.78
		c0.96,5.21,0.81,10.59,2.37,15.72C208.67,553.36,208.54,554.77,207.91,556.79z"/>
	<path class="st1" d="M885.04,553.68c-0.12-8.5,1.47-16.67,3.7-24.72c1.02-3.7,2.28-7.33,3.2-11.05c0.89-3.6,3.2-5.69,6.63-6.33
		c8.04-1.51,15.9-0.8,23.28,2.95c4.73,2.4,8.02,6.28,10.37,10.97c2.83,5.62,4.04,11.68,4.72,17.87c1.04,9.44,0.5,18.85-0.42,28.27
		c-0.62,6.36-1.09,12.73-1.81,19.08c-1.51,13.33-4.52,26.34-8.4,39.16c-4.59,15.16-9.49,30.21-15.92,44.71
		c-3.72,8.39-8.28,16.32-13.72,23.73c-3.63,4.94-8.02,8.93-14.04,10.76c-1.12,0.34-2.28,0.64-3.45,0.74
		c-2.36,0.2-3.35-0.67-3.23-3.05c0.14-2.65,0.5-5.29,0.89-7.91c0.99-6.71,1.68-13.46,2.18-20.22c0.71-9.52,1.23-19.05,1.09-28.61
		c-0.14-9.74-0.39-19.48-1.57-29.16c-1.51-12.39,0.9-24.08,6.07-35.28c2.43-5.27,5.06-10.45,7.61-15.66
		c0.3-0.61,0.66-1.22,1.09-1.75c1.15-1.4,2.07-1.54,3.56-0.49c0.72,0.51,1.35,1.15,1.95,1.8c5.19,5.64,9.29,11.95,11.92,19.18
		c0.27,0.74,0.51,1.5,0.87,2.19c1.01,1.95,2.33,2.56,4.36,2.1c1.73-0.39,2.68-1.54,2.71-3.7c0.09-6.67-1.08-13.11-3.84-19.22
		c-2.46-5.44-5.89-10.21-10.07-14.47c-3.55-3.62-3.49-4.34,0.5-7.63c3.51-2.89,7.44-5.15,11.34-7.45c0.76-0.45,1.55-0.86,2.29-1.35
		c1.49-0.98,2.55-2.22,2.12-4.17c-0.42-1.93-1.72-3.02-3.58-3.52c-3.15-0.84-6.24-0.43-9.32,0.39c-4.22,1.12-7.61,3.61-10.75,6.51
		c-4.29,3.97-7.85,8.55-11.02,13.44C885.94,552.44,885.48,553.05,885.04,553.68z"/>
	<path class="st0" d="M588.55,735.32c3.84,1.19,7.63,1.74,11.39,2.35c13.22,2.13,26.55,3.31,39.84,4.87
		c10.95,1.29,21.9,2.49,32.9,3.21c5.5,0.36,11.01,0.53,16.52,0.81c6.3,0.32,12.53,1.09,18.74,2.25c4.2,0.78,7.51,2.81,10.12,6.1
		c6.19,7.8,10.05,16.63,11.5,26.49c1.43,9.76,0.72,19.44-1.2,29.06c-0.39,1.95-1.01,3.82-2.58,5.18c-2.07,1.8-4.15,1.76-5.93-0.32
		c-5.52-6.44-11.83-12.11-17.71-18.2c-0.48-0.5-0.96-1-1.5-1.42c-1.57-1.22-2.68-1.21-3.7,0.48c-3.47,5.72-8.98,8.64-14.79,11.24
		c-16.28,7.26-33.34,11.81-50.86,14.79c-13.59,2.31-27.28,3.72-41.01,4.91c-21.32,1.84-42.67,2.14-64.04,1.44
		c-11.6-0.38-23.17-1.47-34.73-2.59c-11.46-1.11-22.89-2.4-34.25-4.31c-19.89-3.35-39.14-8.77-57.34-17.62
		c-2.07-1-3.96-2.17-5.4-3.99c-0.54-0.69-1.22-1.3-1.92-1.83c-2.22-1.69-4.21-1.8-6.54-0.26c-1.06,0.7-2.09,1.53-2.91,2.48
		c-4.24,4.92-9.47,8.92-13.28,14.25c-0.39,0.55-0.94,1.03-1.51,1.39c-1.21,0.77-2.23,0.57-3.05-0.62c-0.44-0.64-0.79-1.37-1.03-2.11
		c-4.87-15.22-5.36-30.32,1.27-45.23c6.17-13.88,17.04-21,31.95-22.07c11-0.79,22.02-1.15,33.02-1.91
		c15.71-1.08,31.39-2.43,47.02-4.47c8.39-1.1,16.75-2.39,25.1-3.75c0.68-0.11,1.36-0.2,2.08-0.75c-2.14-2.79-4.84-4.64-8.27-5.14
		c-3.5-0.51-7.04-0.75-10.56-1.09c-2.06-0.2-4.09-0.57-6.1-1.07c-13.41-3.28-22.39-13.7-23.95-27.47
		c-0.69-6.11-0.08-11.97,2.26-17.65c1.68-4.07,4.21-7.56,7.54-10.44c1.7-1.47,2.75-1.69,3.96-0.91c1.44,0.94,1.64,2.31,1.31,3.89
		c-0.74,3.56-1.64,7.09-2.19,10.69c-0.91,5.98-0.36,11.75,1.83,17.4c3.08,7.93,8.37,11.68,16.89,11.83
		c3.24,0.06,6.49-0.21,9.72,0.38c5.11,0.94,9.74,3.03,14.24,5.51c6.58,3.63,13.45,6.53,20.76,8.3c16.24,3.92,31.43,1.2,45.72-7.21
		c0.51-0.3,1.03-0.59,1.5-0.94c5.99-4.47,12.67-6.49,20.18-6.12c3.64,0.18,7.25-0.61,10.67-1.99c7.44-3,11.21-8.64,11.8-16.53
		c0.31-4.27-0.32-8.44-1.45-12.55c-0.81-2.94-1.64-5.87-2.42-8.82c-0.22-0.85-0.33-1.74-0.4-2.61c-0.09-1.19,0.41-2.14,1.5-2.65
		c1.17-0.56,2.31-0.38,3.29,0.48c0.37,0.32,0.72,0.68,1.01,1.07c5.18,6.79,9.42,14.06,11.13,22.57c0.9,4.49,1.08,9,0.18,13.5
		c-1.31,6.54-5.06,11.43-10.53,15.08c-5.81,3.87-12.37,5.44-19.19,6.18c-3.62,0.39-7.24,0.8-10.85,1.2
		C591.28,730.36,589.57,732.18,588.55,735.32z M669.09,792.28c-85.38,0-170.46,0-255.51,0c-0.16,0.9,0.42,1.22,0.79,1.63
		c2.77,2.95,6.27,4.69,10.06,5.92c9.08,2.94,18.34,5.21,27.71,7.02c14.4,2.77,28.93,4.47,43.57,5.46
		c12.28,0.83,24.56,1.34,36.86,1.5c17.72,0.24,35.42-0.37,53.1-1.71c13.72-1.05,27.43-2.29,41.06-4.2
		c10.52-1.48,20.93-3.56,31.06-6.85c2.35-0.76,4.64-1.64,6.67-3.07C666.48,796.54,668.12,794.8,669.09,792.28z"/>
	<path class="st0" d="M543.97,898.53c-11.2,0.24-21.69-1.49-31.69-5.88c-11.39-5-20.38-12.9-27.68-22.84
		c-1.52-2.07-2.64-4.39-2.72-7.06c-0.11-3.62,1.51-5.31,5.14-5.27c3.66,0.04,7.19,1.08,10.78,1.65c10.41,1.65,20.86,2.8,31.38,3.33
		c10.82,0.54,21.64,0.69,32.46,0.01c7.18-0.45,14.26-1.69,21.36-2.69c5.65-0.79,11.29-1.71,17.02-1.71c5.17,0,6.25,1.59,4.03,6.34
		c-7.38,15.79-19.44,26.22-36.21,31.07C559.93,897.77,551.87,898.93,543.97,898.53z"/>
	<path class="st0" d="M414.7,519.54c0.14,1.01,0.86,1.71,1.32,2.54c5.58,9.91,6.83,20.41,2.9,31.01
		c-4.76,12.84-14.57,19.9-28.13,20.98c-17.74,1.41-32.35-10.88-34.91-28.57c-0.8-5.55,0.19-10.76,1.94-15.93
		c0.44-1.3,0.96-2.59,1.27-3.92c0.63-2.66-0.24-3.88-2.96-4.23c-1.98-0.25-3.92,0.02-5.82,0.65c-11.86,3.94-22.9,9.46-32.88,17.01
		c-4.24,3.21-8.42,6.5-11.82,10.64c-0.71,0.87-1.53,1.52-2.76,1.38c-2.22-0.25-3.28-2.26-2.25-4.3
		c9.4-18.71,23.59-32.27,43.19-39.94c17.59-6.88,35.81-9.97,54.66-8.33c19.57,1.7,36.79,9.29,52.23,21.37
		c8.42,6.59,14.43,14.68,17.89,24.73c0.35,1.02,0.83,2,0.87,3.11c0.04,1.1-0.5,1.89-1.42,2.4c-0.93,0.51-1.89,0.51-2.77-0.17
		c-0.39-0.3-0.75-0.64-1.07-1.01c-12.16-13.54-27.42-22.2-44.41-28.11c-1.49-0.52-2.99-0.98-4.49-1.45
		C415.13,519.37,414.94,519.48,414.7,519.54z"/>
	<path class="st0" d="M730.21,519.32c1.69,2.89,3.21,5.53,4.48,8.3c6.26,13.68,1.35,29.39-7.57,37.8
		c-18.11,17.1-48.49,8.59-54.55-15.36c-2.18-8.6-0.59-16.79,2.96-24.71c0.82-1.84,1.75-3.64,2.62-5.43
		c-0.79-0.51-1.34-0.18-1.88-0.01c-16.67,5.16-31.89,12.93-44.69,25.01c-1.29,1.21-2.48,2.53-3.71,3.8
		c-0.41,0.42-0.78,0.89-1.23,1.27c-1.02,0.89-2.12,0.93-3.24,0.17c-1.2-0.81-1.24-1.93-0.76-3.14
		c4.93-12.31,12.04-22.95,23.19-30.59c8.03-5.5,16.79-9.43,25.99-12.45c11.29-3.71,22.87-5.9,34.77-5.99
		c22.94-0.18,43.45,7.18,62.07,20.31c7.66,5.41,14.26,11.8,18.82,20.07c1.47,2.67,2.71,5.46,4,8.22c0.88,1.88,0.64,2.88-0.74,3.86
		c-1.34,0.95-2.54,0.87-3.92-0.58c-3.73-3.95-7.82-7.49-12.13-10.78c-12.37-9.43-26.02-16.19-41.25-19.63
		C732.46,519.24,731.51,518.99,730.21,519.32z"/>
	<path class="st1" d="M669.09,792.28c-0.97,2.53-2.61,4.26-4.63,5.69c-2.03,1.43-4.32,2.3-6.67,3.07
		c-10.13,3.29-20.54,5.38-31.06,6.85c-13.63,1.91-27.34,3.16-41.06,4.2c-17.67,1.35-35.37,1.96-53.1,1.71
		c-12.3-0.17-24.58-0.68-36.86-1.5c-14.64-0.99-29.17-2.68-43.57-5.46c-9.37-1.8-18.62-4.08-27.71-7.02
		c-3.79-1.23-7.29-2.97-10.06-5.92c-0.38-0.4-0.96-0.73-0.79-1.63C498.63,792.28,583.71,792.28,669.09,792.28z"/>
</g>
</svg>
